<svg xmlns="http://www.w3.org/2000/svg" viewBox="0 0 63 30">
  <path class="colored" d="M56.5,12c0,0-1.5-1.1-3.5-1.2H4.1l-1.9,8.7h28.3c0-1.8-0.7-3.5-2.4-4.9c1.7-0.5,3.1-1.8,4-3.5C32,11.6,32,12,32,12.5 c0,2.6,1.1,4.4,2.7,5.7c0.3,0.3,1.8,1.2,4.6,1.2H59c0.1-0.7,0.2-1.5,0.2-2.2C59.4,15,58.1,13.2,56.5,12 M43.9,0.1 c-0.3,0-3.2,0.1-5,1.1c-1.9,1-4.3,2.9-5.6,6c0-2.1-0.7-4.3-2.7-5.8C29,0.3,26.7,0,25.4,0h-1l0,0l-18,0.1L4.6,8.7h56.2L62.6,0 L43.9,0.1z M0,30c0,0,18.8-0.1,22.2-0.1c2.6,0,6.4-3.5,7.8-7.4l-1.6,7.4h18.8c3.6,0,5.5-0.7,5.8-0.9c2.9-1.4,4.8-4,5.7-7.4H1.8L0,30z"></path>
</svg>