<svg xmlns="http://www.w3.org/2000/svg" width="1024" height="1024" viewBox="0 0 1024 1024" fill="none">
  <defs>
    <linearGradient id="app-bg" x1="64" y1="44" x2="962" y2="968" gradientUnits="userSpaceOnUse">
      <stop offset="0" stop-color="#0F3D91"/>
      <stop offset="0.58" stop-color="#2B63BE"/>
      <stop offset="1" stop-color="#20C5C7"/>
    </linearGradient>
    <linearGradient id="app-top" x1="198" y1="188" x2="828" y2="412" gradientUnits="userSpaceOnUse">
      <stop offset="0" stop-color="#123B84"/>
      <stop offset="1" stop-color="#11B7D9"/>
    </linearGradient>
    <radialGradient id="app-glow" cx="0" cy="0" r="1" gradientUnits="userSpaceOnUse" gradientTransform="translate(780 250) rotate(130) scale(360)">
      <stop offset="0" stop-color="#FFFFFF" stop-opacity="0.34"/>
      <stop offset="1" stop-color="#FFFFFF" stop-opacity="0"/>
    </radialGradient>
    <filter id="app-shadow" x="120" y="128" width="784" height="804" filterUnits="userSpaceOnUse" color-interpolation-filters="sRGB">
      <feDropShadow dx="0" dy="18" stdDeviation="18" flood-color="#0C214F" flood-opacity="0.24"/>
    </filter>
  </defs>

  <rect x="8" y="8" width="1008" height="1008" rx="248" fill="url(#app-bg)"/>
  <rect x="8" y="8" width="1008" height="1008" rx="248" stroke="#FFFFFF38" stroke-width="2"/>
  <circle cx="780" cy="250" r="290" fill="url(#app-glow)"/>

  <g filter="url(#app-shadow)">
    <rect x="168" y="156" width="688" height="712" rx="158" fill="#FFFFFF1C"/>
    <rect x="168" y="156" width="688" height="712" rx="158" stroke="#FFFFFF4A" stroke-width="2"/>
    <rect x="168" y="156" width="688" height="224" rx="158" fill="url(#app-top)"/>

    <rect x="298" y="112" width="62" height="104" rx="31" fill="#FFFFFF"/>
    <rect x="666" y="112" width="62" height="104" rx="31" fill="#FFFFFF"/>

    <rect x="286" y="454" width="102" height="86" rx="20" fill="#FFFFFF3F"/>
    <rect x="461" y="454" width="102" height="86" rx="20" fill="#FFFFFF3F"/>
    <rect x="636" y="454" width="102" height="86" rx="20" fill="#FFFFFF3F"/>
    <rect x="286" y="586" width="102" height="86" rx="20" fill="#FFFFFF30"/>
    <rect x="461" y="586" width="102" height="86" rx="20" fill="#FFFFFF30"/>
    <rect x="636" y="586" width="102" height="86" rx="20" fill="#FFFFFF30"/>

    <circle cx="662" cy="636" r="132" fill="#0F3D91"/>
    <path d="M604 638L650 684L736 598" stroke="#FFFFFF" stroke-width="34" stroke-linecap="round" stroke-linejoin="round"/>
  </g>
</svg>
