<svg xmlns="http://www.w3.org/2000/svg" width="520" height="620" viewBox="0 0 520 620" fill="none">
  <defs>
    <linearGradient id="plateweb-stacked-ring" x1="168" y1="72" x2="352" y2="240" gradientUnits="userSpaceOnUse">
      <stop offset="0" stop-color="#9CB4DE"/>
      <stop offset="1" stop-color="#5D79AB"/>
    </linearGradient>
    <linearGradient id="plateweb-stacked-fill" x1="184" y1="88" x2="336" y2="220" gradientUnits="userSpaceOnUse">
      <stop offset="0" stop-color="#EEF4FF" stop-opacity="0.68"/>
      <stop offset="1" stop-color="#C6D6F0" stop-opacity="0.22"/>
    </linearGradient>
  </defs>

  <g>
    <circle cx="260" cy="156" r="86" fill="url(#plateweb-stacked-fill)"/>
    <circle cx="260" cy="156" r="78" stroke="url(#plateweb-stacked-ring)" stroke-width="16"/>
    <circle cx="260" cy="156" r="58" stroke="#FFFFFF24" stroke-width="2"/>
  </g>

  <path d="M300.02 138.38Q300.02 146.93599999999998 296.846 152.801Q293.672 158.666 288.29 162.254Q282.908 165.84199999999998 275.87 167.498Q268.832 169.154 261.242 169.154H249.512V206.0H225.91400000000002V108.29599999999999H261.794Q269.798 108.29599999999999 276.767 109.883Q283.736 111.47 288.911 114.989Q294.086 118.508 297.053 124.23499999999999Q300.02 129.962 300.02 138.38ZM276.422 138.518Q276.422 135.06799999999998 275.04200000000003 132.85999999999999Q273.66200000000003 130.652 271.31600000000003 129.41Q268.97 128.168 266.00300000000004 127.75399999999999Q263.036 127.33999999999999 259.862 127.33999999999999H249.512V150.386H259.448Q262.76 150.386 265.796 149.834Q268.832 149.28199999999998 271.247 147.902Q273.66200000000003 146.522 275.04200000000003 144.245Q276.422 141.968 276.422 138.518Z" fill="#0E1833"/>

  <path d="M130.10546875 400.40625 101.74609375 308.109375Q97.96484375 295.734375 95.171875 293.37109375Q92.37890625 291.0078125 86.36328125 291.0078125V281.46875H139.47265625V291.0078125Q129.93359375 291.0078125 129.93359375 296.8515625Q129.93359375 300.203125 131.30859375 304.7578125L147.63671875 356.75L172.21484375 281.46875H185.53515625L215.01171875 356.75L228.07421875 309.484375Q229.53515625 303.984375 229.53515625 301.0625Q229.53515625 291.0078125 218.10546875 291.0078125V281.46875H255.40234375V291.0078125Q250.16015625 291.0078125 246.29296875 294.66015625Q242.42578125 298.3125 237.26953125 316.703125L213.89453125 400.40625H200.48828125L170.06640625 322.203125L143.94140625 400.40625Z" fill="#5E7097"/>
  <path d="M275.25390625 361.9921875Q275.25390625 376.0 280.0234375 383.046875Q284.79296875 390.09375 294.33203125 390.09375Q304.47265625 390.09375 312.98046875 379.78125L320.97265625 384.59375Q316.07421875 391.640625 306.921875 396.23828125Q297.76953125 400.8359375 286.68359375 400.8359375Q269.66796875 400.8359375 257.55078125 390.48046875Q245.43359375 380.125 245.43359375 362.5078125Q245.43359375 344.890625 257.1640625 334.8359375Q268.89453125 324.78125 285.39453125 324.78125Q301.98046875 324.78125 312.59375 334.01953125Q323.20703125 343.2578125 323.20703125 361.9921875ZM275.16796875 353.3125H296.91015625Q296.39453125 334.3203125 285.82421875 334.3203125Q280.49609375 334.3203125 277.83203125 339.046875Q275.16796875 343.7734375 275.16796875 353.3125Z" fill="#5E7097"/>
  <path d="M359.98828125 387.4296875 344.69140625 399.890625H337.55859375V305.875Q337.55859375 299.34375 335.5390625 296.89453125Q333.51953125 294.4453125 325.87109375 294.4453125V285.3359375L365.40234375 279.40625V333.546875Q371.07421875 329.1640625 377.17578125 326.97265625Q383.27734375 324.78125 389.80859375 324.78125Q404.67578125 324.78125 415.07421875 335.05078125Q425.47265625 345.3203125 425.47265625 361.90625Q425.47265625 379.265625 414.859375 389.6640625Q404.24609375 400.0625 389.12109375 400.0625Q380.95703125 400.0625 373.6953125 396.8828125Q366.43359375 393.703125 359.98828125 387.4296875ZM365.40234375 378.578125Q368.92578125 383.4765625 372.87890625 385.92578125Q376.83203125 388.375 381.21484375 388.375Q388.60546875 388.375 392.30078125 381.9296875Q395.99609375 375.484375 395.99609375 362.59375Q395.99609375 349.703125 392.38671875 343.30078125Q388.77734375 336.8984375 381.55859375 336.8984375Q377.17578125 336.8984375 373.13671875 339.00390625Q369.09765625 341.109375 365.40234375 345.40625Z" fill="#5E7097"/>
</svg>
