<svg xmlns="http://www.w3.org/2000/svg" width="180" height="64" viewBox="0 0 180 64" fill="none">
  <rect x="1" y="1" width="178" height="62" rx="16" fill="#ffffff" stroke="#D7E0F0" stroke-width="2"/>
  <rect x="17" y="16" width="146" height="32" rx="10" fill="#0B3B8C"/>
  <path d="M31 16H67L57 48H21L31 16Z" fill="#2BB673"/>
  <path d="M73.67 24.26H79.06C82.91 24.26 85.56 26.65 85.56 31.08C85.56 35.51 82.91 37.9 79.06 37.9H73.67V24.26ZM78.9 34.94C81.05 34.94 82.58 33.63 82.58 31.08C82.58 28.53 81.05 27.22 78.9 27.22H76.65V34.94H78.9Z" fill="white"/>
  <path d="M89.53 37.9H86.67V27.72H89.53V29.15C90.12 28.07 91.18 27.53 92.53 27.53V30.53C90.95 30.33 89.53 31.04 89.53 33.05V37.9Z" fill="white"/>
  <path d="M98.35 38.18C95.36 38.18 93.06 36.04 93.06 32.81C93.06 29.58 95.36 27.44 98.35 27.44C101.36 27.44 103.65 29.58 103.65 32.81C103.65 36.04 101.36 38.18 98.35 38.18ZM98.35 35.46C99.73 35.46 100.8 34.41 100.8 32.81C100.8 31.21 99.73 30.16 98.35 30.16C96.99 30.16 95.92 31.21 95.92 32.81C95.92 34.41 96.99 35.46 98.35 35.46Z" fill="white"/>
  <path d="M111.26 37.9L107.72 33.13V37.9H104.86V23.84H107.72V32.21L111.08 27.72H114.47L110.57 32.69L114.75 37.9H111.26Z" fill="white"/>
  <path d="M120.51 30.49H118.01V34.42C118.01 35.08 118.37 35.31 118.92 35.31C119.23 35.31 119.87 35.21 120.26 34.98V37.57C119.67 37.9 118.96 38.04 118.15 38.04C116.2 38.04 115.15 36.98 115.15 34.92V30.49H113.22V27.72H115.15V25.78L118.01 24.92V27.72H120.51V30.49Z" fill="white"/>
  <text x="126" y="37" fill="white" font-family="Arial, Helvetica, sans-serif" font-size="12" font-weight="700" letter-spacing="0.6">DANKORT</text>
</svg>
