<svg xmlns="http://www.w3.org/2000/svg" width="180" height="64" viewBox="0 0 180 64" fill="none">
  <rect x="1" y="1" width="178" height="62" rx="16" fill="#ffffff" stroke="#D7E0F0" stroke-width="2"/>
  <circle cx="54" cy="32" r="16" fill="#EB001B"/>
  <circle cx="78" cy="32" r="16" fill="#F79E1B"/>
  <path d="M66 18.62C69.64 21.42 71.98 25.91 71.98 31C71.98 36.09 69.64 40.58 66 43.38C62.36 40.58 60.02 36.09 60.02 31C60.02 25.91 62.36 21.42 66 18.62Z" fill="#FF5F00"/>
  <path d="M104.83 23.63C107.01 23.63 108.63 24.76 109.46 26.65L106.88 28.01C106.38 26.91 105.56 26.41 104.56 26.41C102.88 26.41 101.68 27.67 101.68 29.51C101.68 31.35 102.88 32.61 104.56 32.61C105.56 32.61 106.39 32.11 106.88 31.01L109.46 32.37C108.62 34.27 107.01 35.39 104.83 35.39C101.48 35.39 98.8 32.92 98.8 29.51C98.8 26.1 101.48 23.63 104.83 23.63Z" fill="#1F2F45"/>
  <path d="M115.91 35.39C112.95 35.39 110.63 33.02 110.63 30.01C110.63 27 112.95 24.63 115.91 24.63C118.88 24.63 121.2 27 121.2 30.01C121.2 33.02 118.88 35.39 115.91 35.39ZM115.91 32.7C117.33 32.7 118.34 31.63 118.34 30.01C118.34 28.39 117.33 27.32 115.91 27.32C114.5 27.32 113.49 28.39 113.49 30.01C113.49 31.63 114.5 32.7 115.91 32.7Z" fill="#1F2F45"/>
  <path d="M135.78 24.63C138.1 24.63 139.76 26.29 139.76 28.97V35.1H136.98V29.31C136.98 27.95 136.27 27.32 135.3 27.32C134.22 27.32 133.44 28.01 133.44 29.65V35.1H130.66V29.31C130.66 27.95 129.95 27.32 128.98 27.32C127.9 27.32 127.12 28.01 127.12 29.65V35.1H124.34V24.91H127.12V25.93C127.67 25.13 128.6 24.63 129.88 24.63C131.14 24.63 132.1 25.15 132.66 26.08C133.31 25.14 134.37 24.63 135.78 24.63Z" fill="#1F2F45"/>
  <path d="M145.21 26.16C145.84 25.11 146.98 24.63 148.23 24.63C150.97 24.63 152.99 26.94 152.99 30.01C152.99 33.08 150.97 35.39 148.23 35.39C146.98 35.39 145.84 34.91 145.21 33.86V35.1H142.43V20.84H145.21V26.16ZM147.72 32.7C149.14 32.7 150.21 31.63 150.21 30.01C150.21 28.39 149.14 27.32 147.72 27.32C146.3 27.32 145.21 28.39 145.21 30.01C145.21 31.63 146.3 32.7 147.72 32.7Z" fill="#1F2F45"/>
</svg>
