<svg xmlns="http://www.w3.org/2000/svg" width="180" height="64" viewBox="0 0 180 64" fill="none">
  <rect x="1" y="1" width="178" height="62" rx="16" fill="#ffffff" stroke="#D7E0F0" stroke-width="2"/>
  <rect x="18" y="15" width="34" height="34" rx="11" fill="#5B73FF"/>
  <path d="M29.53 37.15V25.32H31.83L35.43 31.07L39.02 25.32H41.31V37.15H38.62V29.99L35.87 34.48H34.95L32.22 30.03V37.15H29.53Z" fill="white"/>
  <path d="M64.3 24.57C67.52 24.57 69.72 26.85 69.72 30.22C69.72 33.58 67.52 35.88 64.3 35.88H60.91V39.35H57.9V24.57H64.3ZM64.02 33.16C65.47 33.16 66.66 32.15 66.66 30.22C66.66 28.28 65.47 27.29 64.02 27.29H60.91V33.16H64.02Z" fill="#1F2F45"/>
  <path d="M75.48 36.11C72.66 36.11 70.55 34.02 70.55 31.14C70.55 28.25 72.66 26.17 75.48 26.17C76.87 26.17 78.01 26.67 78.72 27.61V26.4H81.63V35.88H78.72V34.67C77.99 35.61 76.86 36.11 75.48 36.11ZM76.09 33.54C77.67 33.54 78.76 32.44 78.76 31.14C78.76 29.84 77.67 28.74 76.09 28.74C74.57 28.74 73.48 29.84 73.48 31.14C73.48 32.44 74.57 33.54 76.09 33.54Z" fill="#1F2F45"/>
  <path d="M87.63 39.37H84.59L86.96 34.6L82.91 26.4H86.14L88.58 31.88L90.99 26.4H94.14L87.63 39.37Z" fill="#1F2F45"/>
  <text x="97" y="37" fill="#1F2F45" font-family="Arial, Helvetica, sans-serif" font-size="20" font-weight="700" letter-spacing="-0.5">MobilePay</text>
</svg>
