<svg xmlns="http://www.w3.org/2000/svg" width="180" height="64" viewBox="0 0 180 64" fill="none">
  <rect x="1" y="1" width="178" height="62" rx="16" fill="#ffffff" stroke="#D7E0F0" stroke-width="2"/>
  <path d="M59.87 20.75L49.57 42.9H42.93L37.81 26.08C37.5 25.06 37.22 24.66 36.4 24.21C35.06 23.47 32.85 22.78 30.92 22.35L31.07 21.65H41.89C43.27 21.65 44.5 22.57 44.82 23.95L47.52 36.96L54.23 21.65H59.87Z" fill="#1434CB"/>
  <path d="M69.87 21.65L64.55 42.9H58.27L63.58 21.65H69.87Z" fill="#1434CB"/>
  <path d="M81.48 27.53C81.51 25.71 83.11 24.32 85.99 24.32C87.42 24.29 88.81 24.61 89.87 25.08L90.98 20.1C89.83 19.69 88.35 19.27 86.51 19.27C81.83 19.27 78.53 21.77 78.5 25.36C78.47 28.02 80.88 29.49 82.69 30.37C84.55 31.28 85.18 31.87 85.18 32.69C85.16 33.96 83.66 34.54 82.26 34.54C80.31 34.54 79.28 34.25 77.69 33.56L76.55 38.86C77.69 39.38 79.77 39.83 81.94 39.85C86.92 39.85 90.16 37.39 90.19 33.57C90.21 31.46 88.92 29.85 86.12 28.52C84.43 27.67 83.39 27.1 83.4 26.24C83.4 25.47 84.26 24.65 86.14 24.65C87.68 24.62 88.8 24.98 89.64 25.35L90.18 25.6L91.27 20.78C90.53 20.49 88.92 19.97 86.69 19.97C82.3 19.97 79.21 22.44 79.18 25.99" fill="#1434CB"/>
  <path d="M101.81 21.65H96.95C95.85 21.65 95.01 21.98 94.53 23.18L85.2 42.9H91.82C91.82 42.9 92.89 40.28 93.13 39.71C93.85 39.71 100.19 39.72 101.1 39.72C101.29 40.46 101.88 42.9 101.88 42.9H107.73L102.62 21.65H101.81ZM94.96 34.83C95.48 33.51 97.47 28.38 97.47 28.38C97.44 28.43 97.98 27.1 98.29 26.27L98.73 28.18C98.73 28.18 99.99 33.68 100.24 34.83H94.96Z" fill="#1434CB"/>
  <path d="M116.4 42.9L128.92 21.65H135.26L122.72 42.9H116.4Z" fill="#1434CB"/>
</svg>
