<?xml version="1.0" ?>
<svg xmlns:inkscape="http://www.inkscape.org/namespaces/inkscape" xmlns:sodipodi="http://sodipodi.sourceforge.net/DTD/sodipodi-0.dtd" xmlns:xlink="http://www.w3.org/1999/xlink" xmlns="http://www.w3.org/2000/svg" width="640" height="400" viewBox="0 0 640 400" version="1.1" id="PlateWeb_builder_with_PlateBook" sodipodi:docname="PlateWeb builder with PlateBook" inkscape:export-xdpi="96" inkscape:export-ydpi="96" style="fill: none; stroke: none">
   <defs/>
   <sodipodi:namedview inkscape:pagecheckerboard="true" borderlayer="true" bordercolor="#666666" pagecolor="#ffffff"/>
   <g inkscape:groupmode="layer" id="Underline" inkscape:label="Underline" transform="matrix(1.0, 0.0, 0.0, 1.0, 190.0, 292.0)" opacity="0.7" style="">
      <g id="g_1" transform="matrix(1.0, 0.0, 0.0, 1.0, 0.0, 0.0)" style="fill-opacity:1.0;fill:rgb(92, 128, 188)">
         <rect width="140" height="8" x="-70.0" y="-4.0" rx="4" id="rect_2" style="fill-opacity:1.0;fill:rgb(92, 128, 188)"/>
      </g>
   </g>
   <g inkscape:groupmode="layer" id="Pulse_3" inkscape:label="Pulse 3" transform="matrix(0.7768486636040095, 0.0, 0.0, 0.7768486636040095, 358.0, 208.0)" opacity="0.5217391304347826" style="">
      <g id="g_3" transform="matrix(1.0, 0.0, 0.0, 1.0, 0.0, 0.0)" style="fill-opacity:1.0;fill:rgb(232, 197, 71)">
         <ellipse rx="10.0" ry="10.0" cx="0" cy="0" id="ellipse_4" style="fill-opacity:1.0;fill:rgb(232, 197, 71)"/>
      </g>
   </g>
   <g inkscape:groupmode="layer" id="Pulse_2" inkscape:label="Pulse 2" transform="matrix(0.4563292211687438, 0.0, 0.0, 0.4563292211687438, 322.0, 208.0)" opacity="0.30434782608695654" style="">
      <g id="g_5" transform="matrix(1.0, 0.0, 0.0, 1.0, 0.0, 0.0)" style="fill-opacity:1.0;fill:rgb(232, 197, 71)">
         <ellipse rx="10.0" ry="10.0" cx="0" cy="0" id="ellipse_6" style="fill-opacity:1.0;fill:rgb(232, 197, 71)"/>
      </g>
   </g>
   <g inkscape:groupmode="layer" id="Pulse_1" inkscape:label="Pulse 1" transform="matrix(0.23207576782982223, 0.0, 0.0, 0.23207576782982223, 286.0, 208.0)" opacity="0.08695652173913049" style="">
      <g id="g_7" transform="matrix(1.0, 0.0, 0.0, 1.0, 0.0, 0.0)" style="fill-opacity:1.0;fill:rgb(232, 197, 71)">
         <ellipse rx="10.0" ry="10.0" cx="0" cy="0" id="ellipse_8" style="fill-opacity:1.0;fill:rgb(232, 197, 71)"/>
      </g>
   </g>
   <g inkscape:groupmode="layer" id="PlateBook_Phone" inkscape:label="PlateBook Phone" transform="matrix(1.0, 0.0, 0.0, 1.0, 472.0, 212.0)" style="">
      <g id="g_9" transform="matrix(1.0, 0.0, 0.0, 1.0, 0.0, 0.0)" style="fill-opacity:1.0;fill:rgb(34, 197, 94)">
         <rect width="42" height="6" x="-11.0" y="115.0" rx="3" id="rect_10" style="fill-opacity:1.0;fill:rgb(34, 197, 94)"/>
         <g id="g_11" transform="matrix(0.7071067811865476, -0.7071067811865475, 0.7071067811865475, 0.7071067811865476, -20.0, 116.0)" style="fill-opacity:1.0;fill:rgb(255, 255, 255)">
            <rect width="4" height="22" x="-2.0" y="-11.0" rx="2" id="rect_12" style="fill-opacity:1.0;fill:rgb(255, 255, 255)"/>
         </g>
         <g id="g_13" transform="matrix(0.7071067811865476, 0.7071067811865475, -0.7071067811865475, 0.7071067811865476, -28.0, 118.0)" style="fill-opacity:1.0;fill:rgb(255, 255, 255)">
            <rect width="4" height="12" x="-2.0" y="-6.0" rx="2" id="rect_14" style="fill-opacity:1.0;fill:rgb(255, 255, 255)"/>
         </g>
         <rect width="108" height="32" x="-54.0" y="102.0" rx="16" id="rect_15" style="fill-opacity:1.0;fill:rgb(34, 197, 94)"/>
      </g>
      <g id="g_16" transform="matrix(1.0, 0.0, 0.0, 1.0, 0.0, 0.0)" style="fill-opacity:1.0;fill:rgb(255, 255, 255)">
         <rect width="42" height="6" x="-23.0" y="63.0" rx="3" id="rect_17" style="fill-opacity:1.0;fill:rgb(255, 255, 255)"/>
         <ellipse rx="9.0" ry="9.0" cx="-34" cy="66" id="ellipse_18" style="fill-opacity:1.0;fill:rgb(255, 255, 255)"/>
         <rect width="104" height="34" x="-52.0" y="49.0" rx="17" id="rect_19" style="fill-opacity:1.0;fill:rgb(255, 255, 255)"/>
      </g>
      <g id="g_20" transform="matrix(1.0, 0.0, 0.0, 1.0, 0.0, 0.0)" style="fill-opacity:1.0;fill:rgb(255, 255, 255)">
         <rect width="42" height="6" x="-23.0" y="15.0" rx="3" id="rect_21" style="fill-opacity:1.0;fill:rgb(255, 255, 255)"/>
         <ellipse rx="9.0" ry="9.0" cx="-34" cy="18" id="ellipse_22" style="fill-opacity:1.0;fill:rgb(255, 255, 255)"/>
         <rect width="104" height="34" x="-52.0" y="1.0" rx="17" id="rect_23" style="fill-opacity:1.0;fill:rgb(255, 255, 255)"/>
      </g>
      <g id="g_24" transform="matrix(1.0, 0.0, 0.0, 1.0, 0.0, 0.0)" style="fill-opacity:1.0;fill:rgb(255, 255, 255)">
         <rect width="42" height="6" x="-23.0" y="-33.0" rx="3" id="rect_25" style="fill-opacity:1.0;fill:rgb(255, 255, 255)"/>
         <ellipse rx="9.0" ry="9.0" cx="-34" cy="-30" id="ellipse_26" style="fill-opacity:1.0;fill:rgb(255, 255, 255)"/>
         <rect width="104" height="34" x="-52.0" y="-47.0" rx="17" id="rect_27" style="fill-opacity:1.0;fill:rgb(255, 255, 255)"/>
      </g>
      <g id="g_28" transform="matrix(1.0, 0.0, 0.0, 1.0, 0.0, 0.0)" style="fill-opacity:1.0;fill:rgb(255, 255, 255)">
         <rect width="34" height="6" x="-3.0" y="-87.0" rx="3" id="rect_29" style="fill-opacity:1.0;fill:rgb(255, 255, 255)"/>
         <ellipse rx="8.0" ry="8.0" cx="-28" cy="-84" id="ellipse_30" style="fill-opacity:1.0;fill:rgb(255, 255, 255)"/>
         <rect width="92" height="28" x="-46.0" y="-98.0" rx="14" id="rect_31" style="fill-opacity:1.0;fill:rgb(255, 255, 255)"/>
      </g>
      <g id="g_32" transform="matrix(1.0, 0.0, 0.0, 1.0, 0.0, 0.0)" style="fill-opacity:1.0;fill:rgb(31, 47, 69)">
         <rect width="54" height="12" x="-27.0" y="-130.0" rx="6" id="rect_33" style="fill-opacity:1.0;fill:rgb(31, 47, 69)"/>
      </g>
      <g id="g_34" transform="matrix(1.0, 0.0, 0.0, 1.0, 0.0, 0.0)" style="fill-opacity:1.0;fill:rgb(219, 227, 238)">
         <rect width="132" height="262" x="-66.0" y="-131.0" rx="26" id="rect_35" style="fill-opacity:1.0;fill:rgb(219, 227, 238)"/>
      </g>
      <g id="stroke">
         <use xlink:href="#g_36" style="stroke:rgb(31, 47, 69);stroke-opacity:1.0;stroke-width:5;stroke-miterlimit:0;stroke-linecap:round;stroke-linejoin:round"/>
         <g id="g_36" transform="matrix(1.0, 0.0, 0.0, 1.0, 0.0, 0.0)" style="fill-opacity:1.0;fill:rgb(255, 255, 255)">
            <rect width="154" height="286" x="-77.0" y="-143.0" rx="34" id="rect_37" style="fill-opacity:1.0;fill:rgb(255, 255, 255)"/>
         </g>
      </g>
   </g>
   <g inkscape:groupmode="layer" id="Website_Builder" inkscape:label="Website Builder" transform="matrix(1.0, 0.0, 0.0, 1.0, 190.0, 210.0)" style="">
      <g id="g_38" transform="matrix(1.0, 0.0, 0.0, 1.0, -72.0, 84.0)" style="fill-opacity:1.0;fill:rgb(31, 47, 69)">
         <rect width="28" height="4" x="4.0" y="-2.0" rx="2" id="rect_39" style="fill-opacity:1.0;fill:rgb(31, 47, 69)"/>
         <g id="g_40" transform="matrix(1.0, 0.0, 0.0, 1.0, 0.0, 0.0)" style="fill-opacity:1.0;fill:rgb(232, 197, 71)">
            <rect width="4" height="18" x="-2.0" y="-9.0" rx="2" id="rect_41" style="fill-opacity:1.0;fill:rgb(232, 197, 71)"/>
         </g>
         <rect width="18" height="4" x="-9.0" y="-2.0" rx="2" id="rect_42" style="fill-opacity:1.0;fill:rgb(31, 47, 69)"/>
         <rect width="78" height="48" x="-39.0" y="-24.0" rx="16" id="rect_43" style="fill-opacity:1.0;fill:rgb(31, 47, 69)"/>
      </g>
      <g id="g_44" transform="matrix(1.0, 0.0, 0.0, 1.0, 0.0, 0.0)" style="fill-opacity:1.0;fill:rgb(232, 197, 71)">
         <rect width="92" height="18" x="-6.0" y="83.0" rx="9" id="rect_45" style="fill-opacity:1.0;fill:rgb(232, 197, 71)"/>
         <rect width="68" height="18" x="-88.0" y="83.0" rx="9" id="rect_46" style="fill-opacity:1.0;fill:rgb(232, 197, 71)"/>
      </g>
      <g id="g_52">
         <use xlink:href="#g_47" style="stroke:rgb(219, 227, 238);stroke-opacity:1.0;stroke-width:3;stroke-miterlimit:0;stroke-linecap:round;stroke-linejoin:round"/>
         <g id="g_47" transform="matrix(1.0, 0.0, 0.0, 1.0, 0.0, 0.0)" style="fill-opacity:1.0;fill:rgb(255, 255, 255)">
            <rect width="42" height="8" x="31.0" y="54.0" rx="4" id="rect_48" style="fill-opacity:1.0;fill:rgb(255, 255, 255)"/>
            <rect width="62" height="8" x="21.0" y="40.0" rx="4" id="rect_49" style="fill-opacity:1.0;fill:rgb(255, 255, 255)"/>
            <rect width="54" height="8" x="25.0" y="24.0" rx="4" id="rect_50" style="fill-opacity:1.0;fill:rgb(255, 255, 255)"/>
            <rect width="86" height="66" x="9.0" y="11.0" rx="18" id="rect_51" style="fill-opacity:1.0;fill:rgb(255, 255, 255)"/>
         </g>
      </g>
      <g id="g_58">
         <use xlink:href="#g_53" style="stroke:rgb(219, 227, 238);stroke-opacity:1.0;stroke-width:3;stroke-miterlimit:0;stroke-linecap:round;stroke-linejoin:round"/>
         <g id="g_53" transform="matrix(1.0, 0.0, 0.0, 1.0, 0.0, 0.0)" style="fill-opacity:1.0;fill:rgb(255, 255, 255)">
            <rect width="42" height="8" x="-73.0" y="54.0" rx="4" id="rect_54" style="fill-opacity:1.0;fill:rgb(255, 255, 255)"/>
            <rect width="62" height="8" x="-83.0" y="40.0" rx="4" id="rect_55" style="fill-opacity:1.0;fill:rgb(255, 255, 255)"/>
            <rect width="54" height="8" x="-79.0" y="24.0" rx="4" id="rect_56" style="fill-opacity:1.0;fill:rgb(255, 255, 255)"/>
            <rect width="86" height="66" x="-95.0" y="11.0" rx="18" id="rect_57" style="fill-opacity:1.0;fill:rgb(255, 255, 255)"/>
         </g>
      </g>
      <g id="g_59" transform="matrix(1.0, 0.0, 0.0, 1.0, 0.0, 0.0)" style="fill-opacity:1.0;fill:rgb(92, 128, 188)">
         <rect width="62" height="8" x="-87.0" y="-25.0" rx="4" id="rect_60" style="fill-opacity:1.0;fill:rgb(92, 128, 188)"/>
         <rect width="86" height="8" x="-87.0" y="-43.0" rx="4" id="rect_61" style="fill-opacity:1.0;fill:rgb(92, 128, 188)"/>
         <rect width="202" height="58" x="-101.0" y="-59.0" rx="20" id="rect_62" style="fill-opacity:1.0;fill:rgb(92, 128, 188)"/>
      </g>
      <g id="g_63" transform="matrix(1.0, 0.0, 0.0, 1.0, 0.0, 0.0)" style="fill-opacity:1.0;fill:rgb(54, 80, 111)">
         <ellipse rx="4.0" ry="4.0" cx="-64" cy="-86" id="ellipse_64" style="fill-opacity:1.0;fill:rgb(54, 80, 111)"/>
      </g>
      <g id="g_65" transform="matrix(1.0, 0.0, 0.0, 1.0, 0.0, 0.0)" style="fill-opacity:1.0;fill:rgb(54, 80, 111)">
         <ellipse rx="4.0" ry="4.0" cx="-78" cy="-86" id="ellipse_66" style="fill-opacity:1.0;fill:rgb(54, 80, 111)"/>
      </g>
      <g id="g_67" transform="matrix(1.0, 0.0, 0.0, 1.0, 0.0, 0.0)" style="fill-opacity:1.0;fill:rgb(54, 80, 111)">
         <ellipse rx="4.0" ry="4.0" cx="-92" cy="-86" id="ellipse_68" style="fill-opacity:1.0;fill:rgb(54, 80, 111)"/>
      </g>
      <g id="g_69" transform="matrix(1.0, 0.0, 0.0, 1.0, 0.0, 0.0)" style="fill-opacity:1.0;fill:rgb(219, 227, 238)">
         <rect width="250" height="36" x="-125.0" y="-104.0" rx="28" id="rect_70" style="fill-opacity:1.0;fill:rgb(219, 227, 238)"/>
      </g>
      <g id="g_73">
         <use xlink:href="#g_71" style="stroke:rgb(219, 227, 238);stroke-opacity:1.0;stroke-width:4;stroke-miterlimit:0;stroke-linecap:round;stroke-linejoin:round"/>
         <g id="g_71" transform="matrix(1.0, 0.0, 0.0, 1.0, 0.0, 0.0)" style="fill-opacity:1.0;fill:rgb(255, 255, 255)">
            <rect width="250" height="208" x="-125.0" y="-104.0" rx="28" id="rect_72" style="fill-opacity:1.0;fill:rgb(255, 255, 255)"/>
         </g>
      </g>
   </g>
</svg>
